<?xml version="1.0" encoding="UTF-8"?> <!-- Generator: Adobe Illustrator 24.2.1, SVG Export Plug-In . SVG Version: 6.00 Build 0) --> <svg xmlns="http://www.w3.org/2000/svg" xmlns:xlink="http://www.w3.org/1999/xlink" version="1.1" id="Layer_1" x="0px" y="0px" viewBox="0 0 869 380.1" style="enable-background:new 0 0 869 380.1;" xml:space="preserve"> <style type="text/css"> .st0{fill: transparent;} .st1{fill:#D01400;} .st2{fill:#FED8BE;} .st3{fill:#5E6D97;} .st4{fill:#FEAD00;} .st5{fill:#FEBF00;} .st6{fill:#041C5E;} .st7{fill:#FE6700;} .st8{fill:#FCFCFC;} </style> <path class="st0" d="M121.6,335.4c-27.3,0-54.7,0-82,0c-0.9,0-1-0.2-1-1.1c0-47.5,0-95.1,0-142.6c0.7-0.1,0.8,0.5,1,1 c6,10.4,12.1,20.9,18.1,31.3c6.4,11.1,12.8,22.1,19.2,33.2c0.9,1.6,1.8,3.1,2.7,4.7c0.3,0.5,0.5,0.9,1.2,0.9s1.4,0,2.2,0h77.5 c0.8,0,1.5,0,2.3,0.1c0.1,0,0.3,0.1,0.4,0.2c0.4,0.5-0.1,0.9-0.3,1.3c-4.3,7.5-8.7,15-13,22.5c-6.5,11.2-12.9,22.3-19.4,33.5 c-2.8,4.9-5.7,9.8-8.5,14.7C121.7,335.2,121.6,335.3,121.6,335.4z"></path> <path class="st1" d="M80.1,263.2c-0.9-1.1-1.6-2.3-2.2-3.6c-12.8-22.2-25.6-44.3-38.4-66.5c-0.3-0.5-0.4-1-0.9-1.3v-0.5 c0.3,0,0.7,0,1.1,0h80.7h1.2c0.4,0.4,0,0.8-0.2,1.2c-4.4,7.6-8.8,15.2-13.2,22.8c-6.1,10.6-12.2,21.2-18.3,31.7 c-3,5.1-5.9,10.2-8.9,15.4C80.7,262.7,80.4,263,80.1,263.2z"></path> <path class="st0" d="M287.9,335.1v0.3h-83.2c-0.1-0.1-0.1-0.2-0.1-0.3c1.2-2.7,2.9-5.2,4.4-7.8c7-12.1,14.1-24.3,21.1-36.4 c5-8.6,10-17.3,15-25.9c0.3-0.6,0.5-1.4,1.4-1.5c1,1.4,1.9,2.8,2.7,4.4c5.9,10.2,11.8,20.4,17.7,30.7c6,10.3,12,20.6,17.9,31 C285.7,331.3,286.9,333.2,287.9,335.1z"></path> <path class="st2" d="M204.6,335.1v0.2h-83v-0.2c0.7-0.4,1.4-0.5,2.2-0.4h78.4c0.7-0.1,1.3,0,2,0.1 C204.4,334.9,204.5,335,204.6,335.1z"></path> <path class="st3" d="M830.5,313.6c-0.4-0.4-0.2-1-0.2-1.5c0.1,0,0.1,0,0.2,0V313.6z"></path> <path class="st4" d="M80.1,263.2l19.3-33.3l21.7-37.4c0.3-0.3,0.5-0.8,0.5-1.2c-9.6-16.6-19.2-33.2-28.8-49.8 c-3.1-5.3-6.3-10.6-9.4-15.9c-1-1.8-2-3.6-3.1-5.4c-0.3-0.4-0.3-0.9,0-1.2c3.2-5.4,6.3-10.9,9.5-16.4l11.5-19.8 c5.9-10.2,11.8-20.4,17.8-30.6c0.8-1.4,1.7-2.9,2.6-4.5c1.2,2.1,2.3,4,3.5,6c5.9,10.3,11.9,20.5,17.8,30.8 c5.6,9.8,11.2,19.5,16.9,29.3c1.1,2,2.3,3.9,3.4,5.8c0.1,0.1,0.1,0.2,0.1,0.3c-0.8,1.9-1.8,3.6-2.9,5.3 c-7.2,12.6-14.4,25.1-21.7,37.6c-5.3,9.2-10.6,18.3-15.9,27.5c-0.6,0.8-0.6,1.9,0,2.6c5.2,9,10.4,18.1,15.6,27.1 c6.8,11.8,13.7,23.7,20.5,35.5c1.3,2.2,2.6,4.4,3.8,6.6c0.2,0.3,0.4,0.7,0.5,1.1c0,0.1,0,0.1-0.1,0.2c-0.5,0-1,0-1.6,0h-80 C81,263.2,80.6,263.2,80.1,263.2z"></path> <path class="st5" d="M204.6,335.1c-0.1,0-0.2,0-0.2,0c-0.8-1-1.6-2.1-2.1-3.3c-4.9-8.6-9.9-17.2-14.9-25.8 c-5.3-9.2-10.7-18.5-16-27.7c-2.5-4.4-5-8.7-7.6-13.1c-0.4-0.6-0.7-1.2-0.8-1.9c0-0.1,0-0.2,0.1-0.2c0,0,0,0,0,0l0,0 c0.6-0.5,1.4-0.3,2.1-0.3h71.2c2.7,0,5.4,0,8,0c1,0.1,1.9-0.4,2.3-1.3c11.9-20.6,23.9-41.2,35.8-61.8c1.4-2.4,2.7-4.8,4.1-7.2 c0.3-0.6,0.6-1.2,1.2-1.6c0.6-0.1,1.3-0.2,1.9-0.1h78.6c0.7,0,1.5-0.2,2.2,0.4c-0.4,0.1-0.9,0.2-1.3,0.1h-81.4 c1.1,1.9,2,3.6,3.1,5.4c3.5,6,6.9,11.9,10.4,17.9c3.5,6,6.9,11.9,10.3,17.9c3.8,6.5,7.5,13.1,11.3,19.6l6,10.4 c0.1,0.2,0.3,0.4,0.2,0.6c-0.7,0.4-1.4,0.5-2.2,0.4h-78.7c-0.6,0.1-1.3,0-1.9-0.2c-1.5,2.3-2.9,4.6-4.2,7 c-12.4,21.4-24.9,42.9-37.3,64.4C204.8,334.9,204.7,335,204.6,335.1z"></path> <path class="st6" d="M655.1,69.7h3.5c0.4,0.2,0.9,0,1.3,0.2c4,0.5,7.9,2.1,11,4.7c3.1,2.7,5.3,6.3,6.5,10.2c0.5,1.9,1,3.8,1.2,5.8 c0.2,0.5-0.1,1,0.2,1.4c0,0.7,0,1.4,0,2.1c0.1,0.4,0.1,0.8,0.1,1.2c0,14.3,0,28.6,0,42.8c0,0.4,0.2,0.9-0.2,1.3 c-7.2,0-14.4,0-21.6,0c-1.1,0-1.4-0.2-1.4-1.4c0-12.2,0-24.4,0-36.5c0-0.7-0.1-1.4-0.1-2.2c-0.2-0.4,0.1-0.8-0.2-1.2 c-0.2-2.3-1.1-4.5-2.4-6.3c-1-1.2-2.5-2.1-4-2.4c-0.6-0.1-1.2-0.5-1.8-0.3c-0.6-0.2-1.2-0.2-1.7,0c-3.1,0.2-6.1,1.4-8.4,3.6 c-0.7,0.6-1.6,0.9-1.9,1.9c-0.1,0.5-0.2,1-0.1,1.4c0,14.1,0,28.2,0,42.2c0,0.4,0.2,0.9-0.2,1.3c-7.2,0-14.5,0-21.7,0 c-1,0-1.2-0.2-1.2-1.2c0-12.3,0.1-24.7,0-37c0-3-0.4-6-2.2-8.6c-1.5-2.1-3.9-3.4-6.5-3.5c-0.6-0.2-1.2-0.2-1.7,0 c-2.9,0-5.3,1.4-7.7,2.9c-2,1.2-3.1,3.5-2.8,5.9c0.2,2.7,0.1,5.4,0.1,8.1c-0.1,0.4-0.2,0.9-0.1,1.3c0,10.3,0,20.6,0,30.8 c0,0.4,0.2,0.9-0.2,1.3c-7.2,0-14.3-0.1-21.5,0c-1.3,0-1.5-0.4-1.5-1.6c0-21.7,0-43.3,0-65c0-0.5,0-1,0-1.4c0.3-0.3,0.6-0.2,0.9-0.2 c6.3,0,12.7,0,19,0c0.7,0,1.2,0.1,1.2,0.9l0.1,1.4c0.2,0.5,0,1,0.2,1.5c0,0.4,0,0.9,0.1,1.4c0.2,0.5-0.1,1,0.2,1.5l0.1,1.6 c0.2,0.5-0.1,1,0.2,1.4l0.1,1.4c0.2,0.3-0.3,1,0.4,1.2c1.5-2.4,3.3-4.7,5.4-6.7c3.9-3.8,8.9-6.3,14.3-7.1c0.4-0.2,0.9,0,1.3-0.2h3.5 c0.5,0.3,1,0,1.5,0.2c3.3,0.4,6.4,1.6,9.2,3.4c3.5,2.5,6.2,6.1,7.6,10.2c0.1,0.3,0.1,0.8,0.5,0.8s0.4-0.4,0.6-0.6 c1.5-2.3,3.2-4.4,5.1-6.3c3.9-4,9.1-6.7,14.7-7.5C654.2,69.7,654.7,70,655.1,69.7z"></path> <path class="st6" d="M584.7,195.6l0.1,1.4c0.2,0.3-0.2,0.8,0.4,0.9c1.9-3,4.3-5.7,7-8c2.9-2.5,6.4-4.3,10.2-5.2 c2.6-0.6,5.3-0.8,8-0.6c0.4,0.2,0.8,0,1.2,0.2c3.1,0.5,6.1,1.7,8.7,3.4c3.5,2.5,6.2,6,7.6,10.1c0.1,0.4,0.1,0.9,0.5,1 s0.5-0.5,0.6-0.7c1.7-2.7,3.8-5.1,6.1-7.3c3.7-3.5,8.5-5.7,13.6-6.4c5.7-0.6,11,0.3,15.8,3.6c4.3,3,6.6,7.3,8,12.2 c0.5,1.7,0.7,3.4,1,5.1c0.2,0.5-0.1,1,0.2,1.5v47c-0.3,0.1-0.5,0.1-0.8,0.1h-21.3c-0.3,0-0.6,0.1-0.9-0.1c0-13.1,0-26.2,0-39.3 c0-0.1,0-0.2,0-0.2c-0.2-0.4,0.1-0.8-0.2-1.2c-0.7-5.2-2.5-8.4-7.8-9.4c-0.9-0.2-1.9-0.2-2.8,0c-2.8,0.1-5.1,1.5-7.4,3 s-2.7,3.2-2.7,5.7c0.1,13.8,0.1,27.6,0.1,41.5c-0.3,0.1-0.6,0.1-0.8,0.1h-21.2c-0.3,0-0.7,0.1-0.9-0.1c0-13.2,0.1-26.4-0.1-39.5 c-0.2-0.4,0-0.9-0.2-1.3c-0.4-3.3-1.4-6.2-4.3-8.1c-1.1-0.7-2.3-1.1-3.6-1.2c-0.9-0.2-1.9-0.2-2.8,0c-3.9,0.4-7,2.4-9.6,5.2 c-0.3,0.3-0.2,0.7-0.2,1c-0.1,0.4-0.2,0.9-0.1,1.3c0,12.6,0,25.1,0,37.7c0,0.4,0,0.8-0.1,1.2v3.6c-0.3,0.1-0.5,0.1-0.8,0.1h-21.3 c-0.3,0-0.7,0.1-0.9-0.1c0-0.5,0-1,0-1.4c0-21.6,0-43.3,0-64.9c0-0.5,0-1,0-1.4c0.4-0.3,0.8-0.1,1.3-0.1h18.2c1.5,0,1.5,0,1.7,1.3 c0,0.5,0,1,0.1,1.4s-0.1,1,0.2,1.4l0.1,1.4c0.2,0.5-0.1,1,0.2,1.5c0,0.5,0,0.9,0.1,1.4C584.7,194.6,584.5,195.2,584.7,195.6z"></path> <path class="st6" d="M398.9,86.8c0.3-4,1.3-8,2.8-11.8c1.8-4.9,4.5-9.4,7.9-13.4c4.2-5,9.5-9,15.4-11.8c5.2-2.5,10.9-4.2,16.6-4.8 c0.6-0.1,1.2-0.2,1.8-0.3c0.4-0.1,0.8,0.1,1.2-0.2l1.7-0.1c2.5-0.1,5-0.1,7.4,0l1.6,0.1c0.5,0.3,1,0,1.5,0.2 c5.7,0.7,11.4,2.1,16.8,4.1c4.2,1.7,8.2,3.9,11.8,6.6c0.6,0.5,0.6,0.8,0.2,1.4c-3.2,5.3-6.4,10.5-9.6,15.8c-0.3,0.7-1,1-1.7,0.8 c-0.2-0.1-0.4-0.2-0.5-0.4c-2.8-2.1-6-3.7-9.3-4.8c-3.1-1.1-6.3-1.8-9.5-2c-0.5-0.2-1,0-1.5-0.2c-1.4-0.1-2.7-0.1-4.1,0 c-0.5,0.2-1-0.1-1.5,0.2c-4.9,0.4-9.6,2.1-13.5,5c-5.5,3.9-9.2,9.8-10.2,16.5c-0.2,0.9-0.2,1.8-0.2,2.7c-0.2,1.4-0.2,2.8,0,4.1 c0.2,5.2,2.1,10.1,5.4,14.1c4.5,5.7,10.7,8.8,17.6,10.3c1,0.3,2,0.4,3.1,0.3c0.5,0.2,1,0,1.5,0.2c1.4,0.1,2.9,0.1,4.3,0 c0.5-0.2,1,0.1,1.5-0.2c8.4-0.7,16.6-3.6,23.5-8.4c0.4-0.3,0.8-0.7,1.1-1c0.7-0.2,1.5-0.1,2.1,0.1c0,6.7,0,13.4,0,20.1 c0.1,0.7-0.3,1.4-0.9,1.8c-5,3.6-10.7,5.6-16.6,7.1c-3.5,0.8-7,1.4-10.5,1.7c-0.5,0.2-1.2-0.1-1.7,0.2l-2.2,0.1c-2,0.1-4,0.1-6,0 l-1.9-0.1c-0.5-0.3-1,0-1.5-0.2c-10.6-0.8-20.7-5-28.7-12c-3.4-3-6.4-6.5-8.8-10.3c-1.5-2.4-2.7-4.9-3.7-7.5 c-1.1-2.8-1.9-5.7-2.4-8.6c-0.4-2-0.4-4-0.6-5.9c-0.1-2.2-0.1-4.5,0-6.7c0-0.5,0-1.1,0.1-1.6C399,87.6,398.8,87.2,398.9,86.8z"></path> <path class="st6" d="M782.9,196.5c1.3-1.9,2.9-3.6,4.6-5.1c2.1-2,4.6-3.6,7.2-4.8c4.4-2.1,9.2-2.9,14-2.3 c8.9,0.8,16.3,7.1,18.7,15.6c0.6,2,1,4.1,1.3,6.2c0.2,0.6-0.1,1.2,0.2,1.7v36.9c0,2.9,0,5.9,0,8.9c-0.3,0.3-0.8,0.1-1.2,0.1 c-6.8,0-13.7,0-20.5,0c-1,0-1.3-0.3-1.3-1.3c0-12,0-24,0-36c0.1-0.4,0-0.9-0.1-1.3c-0.2-4.9-2-8.9-6.7-11.2 c-0.8-0.3-1.6-0.5-2.4-0.6c-1-0.2-1.9-0.2-2.9,0c-3,0.3-5.9,1.4-8.3,3.2c-1,0.6-1.9,1.3-2.7,2.3c-0.2,0.5-0.2,0.9-0.1,1.4 c0,14,0,28,0,41.9c0,1.4,0,1.4-1.3,1.4c-6.8,0-13.7,0-20.5,0c-0.9,0-1.2-0.2-1.2-1.2c0-32.7,0-65.3,0-98c-0.1-0.3,0-0.7,0.1-1h22.8 c0.2,0.4,0.2,0.9,0.1,1.3c0,13.4,0,26.9,0,40.3C782.6,195.7,782.3,196.2,782.9,196.5z"></path> <path class="st5" d="M163.1,119.6v-0.3c3.5-6.2,7-12.3,10.6-18.5c2.8-4.8,5.6-9.6,8.4-14.4s5.6-9.7,8.4-14.6s5.5-9.4,8.2-14.1 c2-3.4,3.9-6.8,5.9-10.2c0.1,0,0.2,0,0.3,0.1c2.2,3.5,4.2,7.1,6.2,10.6c4.8,8.3,9.5,16.5,14.3,24.8c6.5,11.3,13.1,22.6,19.5,34 c0.5,0.8,1.3,1.5,1.3,2.6c-0.1,0.1-0.2,0.2-0.4,0.2c-0.6,0.1-1.2,0.2-1.8,0.1h-78.9C164.5,120,163.7,120.2,163.1,119.6z"></path> <path class="st1" d="M246.3,263.4c0.5-0.2,1-0.2,1.5-0.1h81.3c-0.6,1.6-1.5,3.2-2.5,4.6c-4.3,7.5-8.6,14.9-13,22.4 c-5.2,9-10.4,18-15.7,27c-3.3,5.7-6.6,11.4-9.9,17.2c-0.1,0.2-0.2,0.4-0.2,0.6c-0.5,0-0.5-0.5-0.7-0.8c-13.5-23.4-27-46.8-40.5-70.2 C246.5,263.9,246.4,263.7,246.3,263.4z"></path> <path class="st1" d="M246.3,119.4c-1.1-1-1.6-2.4-2.3-3.6c-13-22.4-25.9-44.8-38.8-67.3c-0.2-0.3-0.3-0.6-0.4-0.9 c0.4-0.2,0.9-0.2,1.3-0.1h80.3c0.5,0,1.1-0.3,1.4,0.3c-2.1,3.6-4.2,7.2-6.3,10.8c-5.3,9.1-10.6,18.2-15.8,27.2 c-5.5,9.4-10.9,18.9-16.3,28.3c-1,1.6-1.9,3.2-2.7,4.8C246.5,119.2,246.5,119.3,246.3,119.4z"></path> <path class="st7" d="M370.6,191.3h-1.4h-81.4c-0.1-0.1-0.1-0.2-0.1-0.3c2.5-4.7,5.3-9.2,7.9-13.8c5.5-9.7,11.2-19.4,16.8-29 c4.4-7.6,8.7-15.1,13.2-22.7c0.9-1.5,1.7-3,2.6-4.5c0.2-0.6,0.6-1,1.1-1.4c0.1-0.1,0.2-0.1,0.3,0l6.9,12.1 c3.5,6.2,7.1,12.3,10.6,18.5c3.8,6.6,7.6,13.1,11.4,19.6c3.8,6.5,7.6,13.1,11.3,19.6C370,190,370.4,190.6,370.6,191.3z"></path> <path class="st6" d="M506.2,301.2c0,0.4,0.2,0.8,0.4,1.1c2.7,5.7,5.4,11.3,8.1,17c0.1,0.3,0.2,0.8,0.7,0.8s0.3-0.6,0.4-0.8 c2.4-7,4.8-14.1,7.1-21.2c0-0.1,0.1-0.1,0.1-0.2c0.1-0.4,0.5-0.4,0.8-0.4h7.5c0.1,0,0.2,0.1,0.3,0.1c-0.8,3.2-2.1,6.2-3.1,9.4 c-3,8.8-6.1,17.6-9.1,26.4c-1.8,0.2-3.7,0.2-5.5-0.1l-9.5-19.7c-0.8,1.3-1.5,2.6-2.1,4c-2,4-4,8.1-5.9,12.2c-0.5,1.2-1,2.4-1.6,3.5 c-1.8,0.2-3.7,0.3-5.5,0.1c-1.6-4.7-3.2-9.3-4.8-13.9c-1.9-5.5-4-11-5.8-16.6c-0.6-1.7-1.5-3.4-1.6-5.2c1.2-0.2,2.4-0.2,3.5-0.1 c1.4,0,2.7,0,4,0c0.4,0,0.8-0.1,1,0.4c0.7,2.5,1.5,4.9,2.4,7.3c1.6,4.8,3.2,9.6,4.8,14.4c0.1,0.3,0.2,0.6,0.3,0.9 c0.5-0.3,0.6-0.9,0.9-1.4c2.5-5.1,5-10.2,7.4-15.3c0.3-0.9,0.7-1.8,1.2-2.6C504,301.1,505.1,300.7,506.2,301.2z"></path> <path class="st6" d="M647.1,333.8c-4.2-0.5-8.1-2.3-11.1-5.3c-2.7-2.7-4.5-6.2-5.2-9.9c-0.1-0.7-0.1-1.4-0.1-2.1 c-0.1-0.7-0.1-1.4,0-2.1c0.1-4.8,2.3-9.4,5.9-12.6c2.8-2.5,6.3-4.1,10-4.6c0.9-0.1,1.8-0.2,2.7-0.3c0.7-0.1,1.4-0.1,2.1,0 c4.3,0.2,8.5,1.7,12.1,4.2c0.7,0.5,1.1,1,0.4,1.9c-1.1,1.4-2,2.9-2.9,4.3c-0.3,0.5-0.7,0.7-1.2,0.3c-1.8-1.6-4-2.6-6.4-2.9 c-0.3,0-0.5-0.3-0.9-0.2c-0.4-0.2-0.8,0-1.2-0.2c-5.9-0.6-11.2,3.4-12.2,9.2c-1.4,8.3,4.6,14.3,12.2,13.7c3.8-0.3,7.1-2.7,8.5-6.2 c0.4-0.9,0.1-0.9-0.7-0.9c-2.9,0-5.8,0-8.8,0c-0.2-1.9-0.2-3.9-0.2-5.8c0-0.5,0.4-0.5,0.8-0.5h16.4c0.4,0,0.8-0.2,1.1,0.2v3.3 c-0.2,0.4,0,0.8-0.2,1.2c-1,8-7.2,14.4-15.2,15.6c-0.4,0.2-0.8-0.1-1.2,0.2h-3.6C648,333.7,647.5,333.9,647.1,333.8z"></path> <path class="st6" d="M782.2,333.2c-3-2.9-6-6-9-8.9c-3.8-3.8-7.8-7.3-11.7-11.4v20.3c-2.5,0.3-5,0-7.5,0.1c-0.3,0-0.5-0.2-0.5-0.5 v-0.7c0-11.2,0-22.5,0-33.7c0-0.4-0.2-0.8,0.2-1.1c1.6-0.3,2.7,0.5,3.8,1.6c6,6.1,12,12.2,18,18.2c0.3,0.3,0.6,0.5,0.9,0.8 c0.8-0.1,0.4-0.8,0.4-1.1c0-6.1,0-12.1,0-18.2c0-0.4-0.2-0.9,0.1-1.3c2.2,0,4.5,0.1,6.7,0c1,0,1.2,0.3,1.2,1.2c0,11.3,0,22.7,0,34.1 c0,0.2,0,0.4,0,0.6C784,333.4,783.1,333.4,782.2,333.2z"></path> <path class="st6" d="M405.7,297.5l8.4,8.5c3.8,3.8,7.6,7.7,11.3,11.5c0.2,0.2,0.4,0.7,0.8,0.5s0.1-0.6,0.1-0.9c0-6.5,0-13.1,0-19.6 c0.7-0.2,1.5-0.3,2.2-0.2c1.6,0,3.3,0,4.9,0c0.7,0,1,0.2,0.9,0.9c0,0.2,0,0.4,0,0.6c0,11.1,0,22.2,0,33.3c0,0.4,0.1,0.9-0.1,1.3 c-1.7,0.3-2.7-0.6-3.9-1.7c-4.6-4.2-8.8-8.8-13.3-13c-1.9-1.8-3.8-3.6-5.9-5.5v1.3c0,5.8,0,11.6,0,17.5c0,1.1-0.2,1.5-1.4,1.5 c-2.1-0.1-4.3,0-6.5,0c-0.3-0.4-0.1-0.9-0.1-1.3c0-11.1,0-22.1,0-33.2c0-1.8-0.3-1.6,1.6-1.6C405.1,297.4,405.4,297.3,405.7,297.5z"></path> <path class="st6" d="M617.9,333.3c-0.7-0.7-1.4-1.5-2.2-2.2c-4.2-3.9-8.3-7.8-12.2-11.9c-2-2-4-4-6.2-5.9v19.9 c-1.7,0.2-3.3,0.3-5,0.1c-1,0-2.2,0.5-2.9-0.2s-0.2-1.8-0.2-2.8c0-10.5,0-20.9,0-31.4c0-1.8-0.3-1.6,1.6-1.6c0.3,0,0.7-0.1,0.9,0.1 c1.9,1.9,3.8,3.9,5.7,5.8c3.8,3.9,7.7,7.8,11.6,11.6c0.8,0.8,1.6,1.8,2.5,2.6c0.2,0.2,0.4,0.7,0.8,0.5s0.1-0.6,0.1-0.9v-16 c0-1.2,0-2.4,0-3.6c1.7-0.2,3.3-0.2,5-0.1c1,0,2.2-0.4,2.8,0.1s0.2,1.9,0.2,2.9c0,10.4,0,20.9,0,31.3c0,1.9,0.3,1.6-1.7,1.6 C618.4,333.4,618.1,333.3,617.9,333.3z"></path> <path class="st6" d="M563.1,312.3c4.6,0.2,9.2,0.1,13.9,0.1c0.2,2.1,0.2,4.2,0.1,6.2h-4.6c-2.8,0.1-5.6,0.1-8.4,0 c-0.9,0-1.2,0.2-1.1,1.1c0.1,2.1-0.1,4.3,0.2,6.4h12.2c2.7,0,2.7,0,2.7,2.7c0,1.4,0,2.9,0,4.3c-0.3,0.1-0.5,0.1-0.8,0.1h-21.4 c-0.3,0-0.6,0-0.8-0.1v-35.7c0.3-0.1,0.6-0.1,0.8-0.1h21.3c0.3,0,0.7-0.1,0.9,0.1c0,1.8-0.1,3.6,0,5.4c0.1,1.2-0.2,1.6-1.5,1.5 c-4.1-0.1-8.2,0-12.2,0c-0.4,0-0.8,0-1.2,0.1C562.9,307.1,562.9,309.7,563.1,312.3z"></path> <path class="st6" d="M469,312.6v5.9c-0.3,0.3-0.8,0.2-1.1,0.2h-11.8c-0.4,0-0.8-0.1-1.1,0.1l0,0c-0.2,2.4-0.2,4.9,0,7.3 c0.9,0.2,1.8,0.2,2.7,0.1c4,0,8.1,0,12.1,0c0.2,1.7,0.3,3.3,0.1,5c0.1,2.1,0,2.1-2,2.1c-6.6,0-13.2,0-19.8,0c-1,0-1.2-0.3-1.2-1.2 c0-5.4,0-10.8,0-16.2c0.1-0.4,0-0.9-0.1-1.3c0-5.7,0-11.4,0-17.1c0.4-0.3,0.8-0.1,1.2-0.1c6.9,0,13.8,0,20.8,0c1,0,1.3,0.2,1.3,1.2 c-0.1,1.9,0.1,3.9-0.1,5.8h-13.6c-0.4,0-0.9,0.1-1.3,0.1c-0.2,2.6-0.2,5.2,0,7.8l0,0c0.4,0.3,0.8,0.1,1.1,0.1c3.9,0,7.9,0,11.8,0 C468.3,312.5,468.7,312.4,469,312.6z"></path> <path class="st6" d="M686.5,325.9c3.8,0.2,7.7,0,11.5,0.1c0.9,0,2.2-0.4,2.7,0.2s0.2,1.8,0.2,2.7c0,1.4,0,2.9,0,4.3 c-0.2,0.1-0.5,0.2-0.8,0.1h-20.8c-0.3,0-0.7,0.1-0.9-0.2c0-11.5,0-23,0-34.4c0-1.1,0.2-1.5,1.4-1.5c2.2,0.1,4.3,0,6.5,0 c0.3,0.4,0.2,0.9,0.2,1.3c0,8.7,0,17.4,0,26.1C686.3,325.1,686.3,325.5,686.5,325.9z"></path> <path class="st8" d="M759.7,153.6c0,0.4-0.1,0.9-0.1,1.3v97.3c0,1.7-0.2,1.5,1.6,1.5c6.6,0,13.3,0,19.9,0c1.3,0,1.5-0.4,1.5-1.6 c0-13.9,0-27.9,0-41.8c0-0.4-0.2-1,0.2-1.4c0,14.6,0,29.1,0,43.6c0,0.9-0.2,1.2-1.2,1.2c-7,0-13.9,0-20.9,0c-0.9,0-1.2-0.2-1.2-1.2 c0-32.7,0-65.3,0-98C759.4,154.3,759.3,153.9,759.7,153.6z"></path> <path class="st8" d="M287.7,47.9c-0.2-0.4-0.6-0.3-1-0.3h-81.5c-0.2,0-0.3,0-0.5,0c0,0-0.1-0.1-0.2-0.1c0.4-0.3,0.9-0.2,1.3-0.2 c26.9,0,53.8,0,80.7,0C287,47.5,287.6,47,287.7,47.9z"></path> <path class="st8" d="M329.4,119.6h-0.2c-0.7,0.4-1.5,0.6-2.3,0.4h-78.3c-0.7,0.1-1.4,0-2-0.2l-0.2-0.2c0.1-0.1,0-0.1,0-0.2 s0.1-0.2,0.2-0.3c0.4,0.5,1.1,0.3,1.6,0.3h79.8C328.4,119.4,328.9,119.2,329.4,119.6z"></path> <path class="st8" d="M805.8,215.2c0.2,0.4,0.2,0.9,0.1,1.3c0,12,0,24,0,36c0,1,0.2,1.3,1.2,1.3c6.8,0,13.7,0,20.5,0 c0.4,0.1,0.8,0,1.2-0.1c-0.3,0.4-0.7,0.3-1.1,0.3c-6.9,0-13.8,0-20.7,0c-0.9,0-1.2-0.2-1.2-1.2C805.8,240.2,805.8,227.7,805.8,215.2 z"></path> <path class="st8" d="M533.6,253.6c0.3,0.1,0.7,0.2,1,0.1c6,0,11.9,0,17.9,0c0.9,0,1.1-0.2,1.1-1.1c0-11.3,0-22.5,0-33.8 c0-0.8,0-1.6-0.1-2.4c0.3,0.3,0.2,0.8,0.2,1.1c0,11.7,0,23.3,0,35c0,1.1-0.3,1.3-1.4,1.3c-5.9,0-11.7,0-17.6,0 C534.4,253.9,534,254,533.6,253.6z"></path> <path class="st8" d="M403.3,253.6c0.3,0,0.6,0.1,0.8,0.1c7.1,0,14.1,0,21.2,0c0.9,0,1.1-0.2,1.1-1.1c0-8.7,0-17.5,0-26.2 c-0.1-0.4,0-0.9,0.1-1.3c0,9.1,0,18.3,0,27.4c0,1-0.2,1.4-1.3,1.4c-7,0-13.9,0-20.9,0C404,253.9,403.6,254,403.3,253.6z"></path> <path class="st8" d="M797.4,297.3c0,0.4-0.1,0.8-0.1,1.2c0,11.2,0,22.4,0,33.6c0,0.9,0.2,1.2,1.2,1.2c4.8,0,9.7,0,14.5,0 c-0.3,0.3-0.7,0.2-1,0.2c-4.5,0-9.1,0-13.7,0c-0.9,0-1.2-0.2-1.2-1.1c0-11.3,0-22.6,0-34C797.1,298,797,297.5,797.4,297.3z"></path> <path class="st8" d="M446.8,314.7c0,0.4,0.1,0.9,0.1,1.3c0,5.4,0,10.8,0,16.1c0,0.9,0.1,1.2,1.1,1.2c6.9,0,13.9,0,20.8,0 c0.8,0,1-0.2,1-1c-0.1-2,0.1-4.1-0.1-6.1c0.4,0.2,0.3,0.5,0.3,0.8c0,1.8,0,3.6,0,5.4c0,0.7-0.3,1-1,1c-7.1,0-14.2,0-21.4,0 c-0.7,0-1-0.2-1-1C446.8,326.6,446.8,320.6,446.8,314.7z"></path> <path class="st8" d="M591.7,297.5c-0.1,0-0.2-0.1-0.3-0.1c-2.2-0.2-2.2-0.2-2.2,1.9c0,10.9,0,21.8,0,32.8c0,1,0.2,1.3,1.2,1.2 c2.3-0.1,4.5,0.2,6.8-0.2c-0.2,0.4-0.5,0.3-0.8,0.3c-2.1,0-4.2,0-6.4,0c-0.7,0-1-0.3-1-1c0-11.4,0-22.8,0-34.3c0-0.7,0.2-1.1,0.9-1 C590.5,297.3,591.2,297,591.7,297.5z"></path> <path class="st8" d="M617.9,333.3c2.5,0.1,2.5,0.1,2.5-2.3c0-6.1,0-12.2,0-18.3c0-4.8-0.1-9.5-0.1-14.2c0-0.8-0.2-1.1-1-1.1 c-2.3,0.1-4.6-0.2-6.9,0.2c0.2-0.4,0.6-0.3,1-0.3c2,0,4.1,0,6.1,0c0.8,0,1.1,0.3,1.1,1.1c0,11.3,0,22.7,0,34c0,0.9-0.2,1.3-1.1,1.1 C618.9,333.4,618.3,333.6,617.9,333.3z"></path> <path class="st8" d="M678.8,139.5c0-0.5,0.1-1,0.1-1.6c0-14.6,0-29.2,0-43.8c0.3,0.4,0.2,0.8,0.2,1.3c0,14.2,0,28.5,0,42.7 C679,138.6,679.3,139.1,678.8,139.5z"></path> <path class="st8" d="M634.8,139.5c0-0.5,0.1-0.9,0.1-1.4c0-14,0-28,0-42.1c0-0.5-0.2-1,0.2-1.4c0,7.4,0,14.8,0,22.2 c0,7.1,0,14.3,0,21.4C635.1,138.6,635.3,139.1,634.8,139.5z"></path> <path class="st8" d="M434.2,333.5c0.2-0.4,0.2-0.9,0.2-1.3c0-11.2,0-22.4,0-33.5c0-1-0.2-1.4-1.2-1.3c-2.3,0.1-4.5-0.1-6.8,0.2 c0.1-0.2,0.4-0.3,0.6-0.3c2.2,0,4.5,0,6.7,0c0.6,0,0.9,0.2,0.8,0.9c0,1.3,0,2.6,0,3.8c0,10.1,0,20.1,0,30.2 C434.5,332.6,434.7,333.1,434.2,333.5z"></path> <path class="st8" d="M753.7,297.3c0,0.4-0.1,0.8-0.1,1.2c0,11.2,0,22.4,0,33.6c0,0.9,0.2,1.2,1.2,1.2c2.3-0.1,4.5-0.1,6.8-0.1 c-0.3,0.4-0.7,0.2-1,0.2c-2,0-4.1,0-6.1,0c-0.7,0-1.1-0.2-1.1-1c0-11.5,0-22.9,0-34.4C753.4,297.8,753.4,297.5,753.7,297.3z"></path> <path class="st8" d="M782.9,196.5c-0.1,0.1-0.2,0.4-0.3,0.1c-0.1-0.4-0.1-0.7,0-1.1V155c0-0.4,0-0.9,0-1.3c0.5,0.4,0.2,1,0.2,1.5 c0,13.3,0,26.7,0,40C782.7,195.6,782.6,196.1,782.9,196.5z"></path> <path class="st8" d="M586,250c0-13.2,0-26.4,0.1-39.6c0-0.2,0.1-0.5,0.1-0.7c0,13.1,0,26.3,0,39.4C586.2,249.4,586.2,249.8,586,250z "></path> <path class="st8" d="M405.7,297.5c-2.5-0.3-2.5-0.3-2.5,2.1V332c-0.1,0.5,0,1,0.1,1.4c-0.5-0.4-0.3-0.9-0.3-1.3 c0-11.1,0-22.1,0-33.2C403.1,297.1,403.9,296.7,405.7,297.5z"></path> <path class="st8" d="M558.5,139.5c0.2-0.4,0.2-0.9,0.2-1.4v-34c0-0.8,0-1.5,0-2.3c0.3,0.3,0.2,0.8,0.2,1.2c0,11.8,0,23.5,0,35.3 C558.8,138.7,559,139.2,558.5,139.5z"></path> <path class="st8" d="M590.9,139.5c0-0.5,0.1-1,0.1-1.4c0-10.3,0-20.6,0.1-30.9c0-0.4,0.1-0.7,0.1-1.1c0,10.8,0,21.7,0,32.5 C591.2,138.9,591.3,139.3,590.9,139.5z"></path> <path class="st8" d="M469.8,304.4c0-2.1,0-4.2,0-6.3c0-0.5,0-0.8-0.6-0.8h-22.1c-0.1,0-0.2,0.1-0.3,0.1c0.3-0.4,0.7-0.3,1.1-0.3 c7,0,14,0,21,0c0.9,0,1.3,0.2,1.2,1.2c-0.1,1.7,0,3.4,0,5C470,303.8,470.1,304.2,469.8,304.4z"></path> <path class="st8" d="M686.5,325.9c-0.3-0.4-0.1-0.9-0.1-1.3c0-8.7,0-17.3,0-26c0.1-0.5,0-1-0.2-1.4c0.5,0.4,0.3,0.9,0.3,1.3 C686.5,307.7,686.5,316.8,686.5,325.9z"></path> <path class="st8" d="M457.1,253.7h22.1c1,0,2.1-0.1,3.1-0.1c-0.3,0.3-0.7,0.2-1,0.2H458C457.7,253.9,457.3,253.9,457.1,253.7z"></path> <path class="st8" d="M668.5,313.6c-1.6,0-3.2-0.1-4.9-0.1c-4.1,0-8.3,0-12.4,0c-0.8,0-1.1,0.2-1,1.1c0.1,1.7-0.2,3.5,0.2,5.2 c-0.3-0.2-0.3-0.5-0.3-0.9c0-1.6,0-3.1,0-4.7c0-0.6,0.1-1,0.8-1c5.6,0,11.3,0,16.9,0C668,313.3,668.3,313.3,668.5,313.6z"></path> <path class="st8" d="M650.7,253.6c0.3,0.1,0.6,0.1,0.9,0.1h21.5c0.2,0,0.4,0,0.6-0.1c-0.3,0.3-0.7,0.2-1,0.2h-20.9 C651.5,253.9,651,254,650.7,253.6z"></path> <path class="st8" d="M606.8,253.6c0.3,0.1,0.6,0.1,0.9,0.1h21.5c0.2,0,0.4,0,0.6-0.1c-0.3,0.3-0.7,0.2-1,0.2h-21 C607.5,253.9,607.1,254,606.8,253.6z"></path> <path class="st8" d="M562.9,253.6c0.3,0.1,0.6,0.1,0.9,0.1h21.5c0.2,0,0.4,0,0.6-0.1c-0.3,0.3-0.7,0.2-1,0.2H564 C563.6,253.9,563.2,254,562.9,253.6z"></path> <path class="st8" d="M688.4,165.4h23c-0.3,0.4-0.7,0.2-1.1,0.2h-20.8C689.1,165.6,688.7,165.8,688.4,165.4z"></path> <path class="st8" d="M555,333.2c0.4,0,0.9,0.1,1.3,0.1h20.5c0.4,0,0.9-0.1,1.3-0.1c-0.3,0.3-0.8,0.2-1.1,0.2h-20.8 C555.7,333.5,555.3,333.6,555,333.2z"></path> <path class="st8" d="M578,297.5c-0.3-0.1-0.6-0.1-0.9-0.1h-21.5c-0.2,0-0.4,0-0.6,0.1c0.3-0.3,0.7-0.2,1-0.2h20.9 C577.3,297.2,577.7,297.1,578,297.5z"></path> <path class="st8" d="M678.3,333.2c0.1,0,0.2,0.1,0.4,0.1h22.2c-0.3,0.4-0.8,0.2-1.2,0.2h-20.1C679.1,333.5,678.7,333.6,678.3,333.2z "></path> <path class="st8" d="M584,187c0-1.2-0.7-1.4-1.8-1.4c-6,0.1-12,0-18,0c-0.5-0.1-1,0-1.4,0.1c0.3-0.4,0.8-0.3,1.2-0.3 c6.2,0,12.3,0,18.5,0C583.8,185.5,584.2,185.9,584,187z"></path> <path class="st8" d="M589,72.2c-0.2-0.4-0.1-0.8-0.8-0.8c-6.7,0-13.5,0.1-20.2,0.1c0,0-0.1,0-0.1,0c0.3-0.4,0.7-0.3,1.1-0.3 c6.3,0,12.6,0,18.9,0C588.7,71.2,589.2,71.2,589,72.2z"></path> <path class="st8" d="M777,297.3c-0.2,0.4-0.2,0.9-0.2,1.4c0,6.2,0,12.3,0,18.5c0,0.2,0.5,0.9-0.4,0.7c0.5-0.4,0.3-0.9,0.3-1.3 c0-6,0-12,0-18C776.7,298.1,776.5,297.6,777,297.3z"></path> <path class="st8" d="M709.3,71.4h-20.9c0.3-0.4,0.7-0.2,1.1-0.2h18.7C708.5,71.2,709,71,709.3,71.4z"></path> <path class="st8" d="M730.2,253.3c0.2,0.4,0.5,0.4,0.9,0.4h18.7c0.2,0,0.4-0.1,0.6-0.1c-0.3,0.5-0.8,0.3-1.2,0.3 c-5.9,0-11.8,0-17.7,0C731,253.8,730.3,254.2,730.2,253.3z"></path> <path class="st8" d="M563.1,326.2c-0.4-0.6-0.2-1.4-0.2-2c0-1.4,0-2.9,0-4.3c0-1,0.2-1.3,1.2-1.3c2.8,0.1,5.6,0,8.4,0 c-0.9,0.3-1.9,0.3-2.8,0.2c-1.8,0-3.7,0-5.5,0c-0.8,0-1.1,0.3-1.1,1.1C563.2,322,563.1,324.1,563.1,326.2z"></path> <path class="st8" d="M469,312.6c-0.4-0.2-0.8-0.2-1.3-0.2c-3.9,0-7.8,0-11.7,0c-0.4,0-0.8,0.1-1.1-0.1c4.3,0,8.5,0,12.8,0 C468.2,312.4,468.7,312.1,469,312.6z"></path> <path class="st8" d="M455,318.9c1.3-0.2,2.7-0.3,4-0.2c3.4-0.1,6.7,0.1,10.1-0.1c-0.4,0.5-0.9,0.3-1.3,0.3 C463.5,318.9,459.2,318.8,455,318.9z"></path> <path class="st8" d="M485.9,297.8c-0.2-0.1-0.3-0.3-0.5-0.3c-2.7-0.1-5.4-0.1-8.2,0.1c0.2-0.3,0.5-0.3,0.8-0.3h6.9 C485.3,297.2,485.8,297.1,485.9,297.8z"></path> <path class="st8" d="M531.7,297.5c-2.7-0.2-5.4-0.2-8.1-0.1c-0.3,0-0.4,0.2-0.6,0.4c0-0.4,0.3-0.5,0.6-0.5h7.5 C531.4,297.2,531.6,297.4,531.7,297.5z"></path> <path class="st8" d="M706.1,333c2.7,0.5,5.5,0.5,8.2,0c0,0.3-0.2,0.5-0.5,0.5c0,0,0,0-0.1,0h-7.3C706.2,333.5,705.9,333.4,706.1,333 z"></path> <path class="st8" d="M563.1,312.3c-0.5-0.5-0.2-1.1-0.2-1.7c0.1-2-0.3-4.1,0.2-6.2V312.3z"></path> <path class="st8" d="M454.9,312.3c-0.2-2.6-0.2-5.2,0-7.8C454.9,307.1,454.9,309.7,454.9,312.3z"></path> <path class="st8" d="M454.9,326.2c-0.2-2.4-0.2-4.9,0-7.3C454.9,321.3,454.9,323.8,454.9,326.2z"></path> <path class="st8" d="M453.7,44.5h-7.4c2.1-0.4,4.2-0.1,6.3-0.2C452.9,44.3,453.4,44.2,453.7,44.5z"></path> <path class="st8" d="M426.6,225.1c0.8-0.3,1.6-0.4,2.4-0.2c1.6,0.1,3.2-0.3,4.8,0.2H426.6z"></path> <path class="st8" d="M398.7,89.6v6.7C398.4,94.1,398.4,91.9,398.7,89.6z"></path> <path class="st8" d="M577.1,318.6c0.2-2.1,0.2-4.2-0.1-6.2c0.4,0.2,0.3,0.6,0.3,1C577.2,315.1,577.6,316.9,577.1,318.6z"></path> <path class="st8" d="M446.3,141h6C450.3,141.3,448.3,141.3,446.3,141z"></path> <path class="st8" d="M489.5,333.3c1.8,0.1,3.7,0.1,5.5-0.1c-0.3,0.5-0.9,0.3-1.3,0.3C492.3,333.5,490.9,333.5,489.5,333.3z"></path> <path class="st8" d="M514,333.1c1.8,0.3,3.7,0.3,5.5,0.1C517.7,333.7,515.8,333.6,514,333.1z"></path> <path class="st8" d="M729.9,141h4.5C733,141.3,731.4,141.3,729.9,141z"></path> <path class="st8" d="M482.9,231.1v4.5C482.6,234.1,482.6,232.6,482.9,231.1z"></path> <path class="st8" d="M710.5,210.9h-4.3C707.6,210.6,709.1,210.6,710.5,210.9z"></path> <path class="st8" d="M423.9,94.7c-0.3-1.4-0.3-2.8,0-4.1C423.9,92,423.9,93.3,423.9,94.7z"></path> <path class="st8" d="M513.7,210.9h-4.1C511,210.6,512.4,210.6,513.7,210.9z"></path> <path class="st8" d="M488,117v4C487.7,119.7,487.7,118.3,488,117z"></path> <path class="st8" d="M506.2,301.2c-1.1-0.5-2.2-0.1-3.3-0.2C504,300.8,505.2,300.5,506.2,301.2z"></path> <path class="st8" d="M793.8,203.5c0.9-0.3,2-0.3,2.9,0H793.8z"></path> <path class="st8" d="M679.5,231.8v2.9C679.2,233.7,679.2,232.7,679.5,231.8z"></path> <path class="st8" d="M782.2,333.2c0.9,0.1,1.8,0,2.6-0.1C784.1,333.6,783.1,333.6,782.2,333.2z"></path> <path class="st8" d="M595.9,203.5c0.9-0.3,1.9-0.3,2.8,0H595.9z"></path> <path class="st8" d="M639.8,203.5c0.9-0.3,1.9-0.3,2.8,0H639.8z"></path> <path class="st8" d="M520.5,69.7l-2.2,0.2C519,69.5,519.8,69.8,520.5,69.7z"></path> <path class="st8" d="M630.8,314.3v2.1C630.5,315.7,630.5,315,630.8,314.3z"></path> <path class="st8" d="M484.2,110c-0.7-0.2-1.5-0.2-2.2,0C482.7,109.6,483.5,109.6,484.2,110z"></path> <path class="st8" d="M750.3,217.7l-0.2-2.2C750.5,216.2,750.3,217,750.3,217.7z"></path> <path class="st8" d="M651.4,296.7h-2.1C650,296.4,650.8,296.4,651.4,296.7z"></path> <path class="st8" d="M527.6,69.9c-0.7,0-1.3,0-1.9-0.2C526.3,69.8,527,69.5,527.6,69.9z"></path> <path class="st8" d="M514.2,184.1c-0.6,0.2-1.1,0.2-1.7,0.2C513,183.9,513.7,184.1,514.2,184.1z"></path> <path class="st8" d="M710.8,184.1c-0.6,0.2-1.2,0.2-1.8,0.2C709.6,183.9,710.2,184.1,710.8,184.1z"></path> <path class="st8" d="M590.2,83.6c-0.1,0.3-0.3,0.2-0.3,0c0-0.4-0.1-0.8-0.1-1.2C590.2,82.8,589.8,83.3,590.2,83.6z"></path> <path class="st8" d="M454.4,140.9c0.5-0.2,1.1-0.2,1.7-0.2C455.6,141.1,455,140.9,454.4,140.9z"></path> <path class="st8" d="M828.8,207.9c-0.2-0.6-0.2-1.1-0.2-1.7C829,206.7,828.7,207.3,828.8,207.9z"></path> <path class="st8" d="M710,79.1c-0.2-0.5-0.2-1.1-0.2-1.7C710.2,77.9,709.9,78.5,710,79.1z"></path> <path class="st8" d="M601.5,89.1c0.6-0.2,1.2-0.2,1.7,0H601.5z"></path> <path class="st8" d="M507.4,201.3c0.5-0.2,1.1-0.2,1.7-0.2C508.6,201.5,508,201.3,507.4,201.3z"></path> <path class="st8" d="M645.4,89.1c0.6-0.2,1.2-0.2,1.7,0H645.4z"></path> <path class="st8" d="M585.2,198c-0.7-0.1-0.3-0.6-0.4-0.9C584.9,197.4,585,197.7,585.2,198z"></path> <path class="st8" d="M584.7,195.6c-0.2-0.5-0.2-1-0.2-1.5C584.9,194.6,584.7,195.1,584.7,195.6z"></path> <path class="st8" d="M709.5,73.1c-0.2-0.5-0.2-1-0.2-1.5C709.7,72.1,709.5,72.6,709.5,73.1z"></path> <path class="st8" d="M589.3,75.1c-0.2-0.5-0.2-1-0.2-1.5C589.5,74,589.2,74.6,589.3,75.1z"></path> <path class="st8" d="M451.5,119.6c-0.5,0.1-1,0-1.5-0.2C450.5,119.4,451.1,119.2,451.5,119.6z"></path> <path class="st8" d="M457.4,119.4c-0.5,0.2-1,0.2-1.5,0.2C456.4,119.2,456.9,119.4,457.4,119.4z"></path> <path class="st8" d="M678.8,92c-0.2-0.5-0.2-1-0.2-1.4C679,91,678.8,91.6,678.8,92z"></path> <path class="st8" d="M442.9,140.7c0.5,0,1,0,1.5,0.2C443.9,140.9,443.4,141.1,442.9,140.7z"></path> <path class="st8" d="M523,184.3c-0.5,0.1-1,0-1.5-0.2C522.1,184.1,522.6,183.9,523,184.3z"></path> <path class="st8" d="M719.8,184.3c-0.5,0-1,0-1.5-0.2C718.8,184.1,719.4,183.9,719.8,184.3z"></path> <path class="st8" d="M710.2,82c-0.2-0.5-0.2-1-0.2-1.5C710.4,81,710.2,81.5,710.2,82z"></path> <path class="st8" d="M584.2,189.9c-0.2-0.5-0.2-1-0.2-1.4C584.4,188.9,584.2,189.4,584.2,189.9z"></path> <path class="st8" d="M589.8,81c-0.2-0.5-0.2-1-0.2-1.4C589.9,80,589.7,80.5,589.8,81z"></path> <path class="st8" d="M709.7,76c-0.2-0.5-0.2-1-0.2-1.5C709.9,75,709.7,75.5,709.7,76z"></path> <path class="st8" d="M673.8,206.7c-0.2-0.5-0.2-1-0.2-1.5C673.9,205.6,673.7,206.2,673.8,206.7z"></path> <path class="st8" d="M731.9,69.7c-0.5,0.2-1,0.2-1.5,0.2C730.9,69.6,731.4,69.8,731.9,69.7z"></path> <path class="st8" d="M710.5,201.1c0.5-0.1,1,0,1.5,0.2C711.5,201.3,711,201.5,710.5,201.1z"></path> <path class="st8" d="M704.2,201.3c0.5-0.2,1-0.2,1.5-0.2C705.2,201.5,704.7,201.3,704.2,201.3z"></path> <path class="st8" d="M456.8,44.7c-0.5,0.1-1,0-1.5-0.2C455.8,44.6,456.4,44.4,456.8,44.7z"></path> <path class="st8" d="M513.9,201.2c0.5-0.1,1,0,1.5,0.2C514.9,201.3,514.4,201.5,513.9,201.2z"></path> <path class="st8" d="M447.9,66.4c0.5-0.2,1-0.2,1.5-0.2C448.9,66.5,448.4,66.3,447.9,66.4z"></path> <path class="st8" d="M584.5,192.8c-0.2-0.5-0.2-1-0.2-1.5C584.7,191.7,584.4,192.3,584.5,192.8z"></path> <path class="st8" d="M616.2,69.9c-0.5,0-1,0-1.5-0.2C615.2,69.8,615.7,69.6,616.2,69.9z"></path> <path class="st8" d="M589.5,78c-0.2-0.5-0.2-1-0.2-1.5C589.7,76.9,589.5,77.4,589.5,78z"></path> <path class="st8" d="M453.5,66.2c0.5-0.1,1,0,1.5,0.2C454.5,66.3,453.9,66.5,453.5,66.2z"></path> <path class="st8" d="M477.5,196.1c-0.1-0.5,0-1,0.2-1.4C477.6,195.1,477.9,195.6,477.5,196.1z"></path> <path class="st8" d="M506.7,255.4h1.2C507.6,255.6,507.1,255.6,506.7,255.4z"></path> <path class="st8" d="M651.2,304c0.4-0.1,0.9,0,1.2,0.2C652,304.2,651.6,304.4,651.2,304z"></path> <path class="st8" d="M611.2,69.8l-1.3,0.2C610.3,69.6,610.8,69.8,611.2,69.8z"></path> <path class="st8" d="M655.1,69.7c-0.4,0.2-0.8,0.2-1.2,0.2C654.2,69.6,654.7,69.8,655.1,69.7z"></path> <path class="st8" d="M659.8,69.9l-1.3-0.2C659,69.8,659.5,69.6,659.8,69.9z"></path> <path class="st8" d="M736.9,69.9l-1.3-0.2C736,69.8,736.5,69.6,736.9,69.9z"></path> <path class="st8" d="M507.8,211c-0.4,0.2-0.8,0.2-1.2,0.2C506.9,210.8,507.3,211,507.8,211z"></path> <path class="st8" d="M704.3,211c-0.4,0.2-0.8,0.2-1.3,0.2C703.4,210.8,703.9,211,704.3,211z"></path> <path class="st8" d="M477.7,189.6c-0.1-0.4-0.2-0.8-0.2-1.2C477.8,188.8,477.7,189.2,477.7,189.6z"></path> <path class="st8" d="M444.6,44.6c-0.4,0.2-0.8,0.2-1.2,0.2C443.8,44.4,444.2,44.6,444.6,44.6z"></path> <path class="st8" d="M707.9,184.3c-0.4,0.2-0.8,0.2-1.2,0.2C707,184.2,707.5,184.4,707.9,184.3z"></path> <path class="st8" d="M668.3,318.1c0-0.4,0-0.8,0.2-1.2C668.5,317.3,668.6,317.7,668.3,318.1z"></path> <path class="st8" d="M511.1,184.4c-0.4,0.2-0.8,0.2-1.3,0.2C510.2,184.2,510.7,184.4,511.1,184.4z"></path> <path class="st8" d="M713.4,211.1c-0.4,0-0.8,0-1.2-0.2C712.5,211,713,210.8,713.4,211.1z"></path> <path class="st8" d="M606.6,212.8c0.2,0.4,0.2,0.8,0.2,1.3C606.4,213.7,606.6,213.2,606.6,212.8z"></path> <path class="st8" d="M398.9,86.8c0,0.4,0,0.9-0.2,1.3C398.8,87.6,398.6,87.1,398.9,86.8z"></path> <path class="st8" d="M611.6,184.3c-0.4,0.1-0.8,0-1.2-0.2C610.8,184.1,611.2,184,611.6,184.3z"></path> <path class="st8" d="M650.5,212.8c0.2,0.4,0.2,0.8,0.2,1.2C650.4,213.7,650.5,213.2,650.5,212.8z"></path> <path class="st8" d="M750.1,214.3c-0.2-0.4-0.2-0.8-0.2-1.2C750.2,213.5,750,213.9,750.1,214.3z"></path> <path class="st8" d="M553.5,215c-0.2-0.4-0.2-0.8-0.2-1.2C553.7,214.2,553.5,214.6,553.5,215z"></path> <path class="st8" d="M516.9,70c-0.4,0.2-0.8,0.2-1.2,0.2C516,69.8,516.5,70,516.9,70z"></path> <path class="st8" d="M763.8,100.5c-0.2-0.4-0.2-0.8-0.2-1.2C763.9,99.6,763.7,100,763.8,100.5z"></path> <path class="st8" d="M647.1,333.8c0.4,0,0.8,0,1.2,0.2C647.9,333.9,647.5,334.1,647.1,333.8z"></path> <path class="st8" d="M651.9,333.9c0.4-0.2,0.8-0.2,1.2-0.2C652.8,334.1,652.3,333.9,651.9,333.9z"></path> <path class="st8" d="M655.5,98.2c0.2,0.4,0.2,0.8,0.2,1.2C655.4,99.1,655.6,98.6,655.5,98.2z"></path> <path class="st7" d="M163,263.4c1.8,2.8,3.4,5.7,5,8.5c3.5,6,6.9,12,10.4,18c3.8,6.5,7.5,13.1,11.3,19.6c3.8,6.5,7.5,13,11.2,19.5 c1.2,1.9,2.4,3.9,3.4,6c-0.3,0-0.6,0-1,0h-81.7c1.8-3.2,3.6-6.5,5.5-9.6c11.9-20.6,23.8-41.1,35.7-61.7 C162.8,263.7,162.9,263.5,163,263.4z"></path> <path class="st6" d="M830.3,312.1c-0.4-3.7-2.1-7.2-4.7-9.9c-2.8-2.7-6.4-4.3-10.2-4.8c-0.3,0-0.6,0-0.8-0.1c-0.1,0-0.2,0-0.3-0.1 h-16.7c-0.3,0.4-0.2,0.8-0.2,1.3c0,9.3,0,18.5,0,27.8c0,2,0,4.1,0,6.1c0,0.5,0,0.9,0.7,0.9c5,0,10,0.1,15-0.1c1-0.1,2-0.1,3-0.3 c6.1-1.1,10.6-4.2,13.2-10.1c0.6-1.4,0.7-3,1.4-4.3v-5C830.2,313.1,830.5,312.5,830.3,312.1z M819.9,322.8c-1.8,2.1-4.5,3.4-7.3,3.4 c-2.2,0.1-4.3,0-6.5,0c-0.8,0-0.9-0.2-0.9-0.9c0-3.4,0-6.7,0-10.1s0-6.5,0-9.8c0-0.9,0.3-1.1,1.1-1.1c1.9,0.1,3.8,0,5.8,0 c5.3-0.2,9.9,3.9,10.2,9.2C822.6,316.9,822.1,320.1,819.9,322.8z"></path> <path class="st6" d="M482,249.7c-2.5-2.8-4.9-5.6-7.3-8.5c-4.6-5.4-9.2-10.8-13.8-16.2c-1-1.2-2-2.4-3-3.6c1.1-0.4,2.2-0.9,3.2-1.6 c5.4-3,9.9-7.4,12.9-12.8c1.8-3.4,3-7.1,3.6-10.9c0.2-0.5-0.1-1,0.2-1.4c0-1.7,0-3.3,0-5c-0.2-0.4,0-0.8-0.2-1.2 c-0.2-0.9-0.4-1.8-0.5-2.7c-1.9-9.1-7.1-15.8-15.1-20.3c-5-2.7-10.5-4.3-16.1-4.9c-0.4,0-0.8,0-1.2-0.1c-0.2,0-0.3-0.1-0.5-0.1h-0.4 c-13,0-26,0-39-0.1c-1.2,0-1.5,0.2-1.5,1.5c0,30.6,0,61.2,0,91.9c0.3,0.1,0.7,0.1,1.1,0.1c7,0,13.9,0,20.9,0c1,0,1.3-0.3,1.2-1.3 c0-8.7,0-17.4,0-26.1c-0.1-0.4,0-0.9,0.1-1.3l0,0c2.4-0.2,4.8-0.2,7.1,0c1.3,1.4,2.5,3,3.8,4.5c3,3.6,5.9,7.4,8.9,11 c3.5,4.4,7.1,8.7,10.7,13.1c0.2,0,0.4,0,0.6,0h23.8c0.3,0,0.6,0,0.8-0.1c0.1-0.2,0.2-0.4,0.3-0.6C483.4,251.2,483.4,251.2,482,249.7 z M446.5,205.4c-2.9,1.2-6,1.9-9.2,1.8c-3.2,0.1-6.5,0-9.7,0c-0.9,0-1.2-0.2-1.1-1.1c0-4.1,0-8.2,0-12.3v-12.4c0-0.5-0.1-1.1,0.7-1 c4.7,0.1,9.4-0.3,14.1,0.4s8.5,2.4,11.1,6.5C456.5,193.6,453.7,202.1,446.5,205.4z"></path> <path class="st6" d="M763.8,100.5c-0.2-0.4,0-0.8-0.2-1.2c-0.5-3.1-1.2-6.2-2.2-9.1c-2.1-5.7-5.7-10.8-10.5-14.5 c-4.1-3.1-8.9-5-13.9-5.7c-0.4-0.1-0.9,0-1.3-0.2h-3.7c-0.5,0.3-1,0-1.5,0.2c-3,0.4-5.9,1.2-8.6,2.5c-4.4,2-8.1,5.2-10.8,9.2 c-0.2,0.2-0.3,0.6-0.7,0.4c-0.3-0.5,0-1-0.2-1.5l-0.1-1.4c-0.3-0.5,0-1.1-0.2-1.7c0-0.5,0-0.9-0.1-1.4c-0.2-0.5,0-1-0.2-1.5 s0-0.9-0.1-1.4c-0.2-0.5,0-1-0.2-1.5l-0.1-0.2c-0.2-0.2-0.5-0.1-0.8-0.1c-6.4,0-12.8,0-19.3,0c-0.3-0.1-0.6,0-0.8,0.1v94 c0.3,0.1,0.6,0.2,0.9,0.1h21.2c0.3,0.1,0.6,0,0.9-0.1v-32.7c1.9,2.1,4.2,3.8,6.7,5.1c3.7,1.9,7.7,3,11.8,3.2c1.5,0.1,3,0.1,4.5,0 c1.1-0.2,2.3-0.3,3.4-0.5c9.5-1.8,16.3-7.1,21.1-15.4c2.4-4.5,4-9.3,4.6-14.4c0-0.4,0-0.8,0.2-1.2l0.1-1.4v-6 C763.8,101.6,763.8,101,763.8,100.5z M733.8,120.2c-4.8,2.6-9.8,2.3-14.8,0.5c-2.4-0.9-4.6-2.1-6.5-3.7c-0.5-0.4-0.8-1-0.8-1.6 c0-6.7,0-13.4,0-20.1c-0.1-0.5,0.1-0.9,0.4-1.2c6-4.7,12.6-6.8,20-4c6.1,2.2,8.9,7.2,9.7,13.4c0.1,0.6,0.1,1.1,0.1,1.7 c0,0.2,0,0.3,0,0.5C741.6,111.8,739.5,117,733.8,120.2L733.8,120.2z"></path> <path class="st6" d="M750.3,217.7c-0.2-0.7,0-1.5-0.2-2.2v-1.2c-0.3-0.4,0-0.8-0.2-1.2c-0.1-0.3-0.2-0.7-0.3-1 c-0.7-5.5-2.7-10.8-6-15.3c-2.9-4-6.8-7.1-11.3-9.1c-4-1.7-8.2-2.9-12.5-3.4c-0.5-0.2-1,0.1-1.5-0.2h-7.5c-0.6,0.2-1.2,0-1.8,0.2 l-1.2,0.1c-0.4,0.3-0.8,0-1.2,0.2c-3.1,0.4-6.3,0.9-9.4,1.6c-3.8,0.7-7.6,1.9-11.2,3.5c-0.5,0.2-0.8,0.4-0.8,1.1c0,4.9,0,9.7,0,14.6 c0,0.8,0.3,0.8,0.8,0.5c1-0.4,2-0.9,3-1.2c4.8-1.7,9.9-2.8,15-3.2c0.5-0.2,1,0,1.5-0.2c1.6-0.1,3.2-0.1,4.8,0c0.5,0.2,1-0.1,1.5,0.2 c1,0.1,1.9,0.3,2.8,0.5c2.9,0.5,5.6,1.7,7.8,3.7c2.8,2.4,3.9,5.8,4.4,9.3c0.1,0.3,0,0.6-0.1,0.9c-0.3,0.2-0.6-0.1-0.8-0.3 c-0.7-0.3-1.3-0.8-2-1.1c-3.4-1.6-7.1-2.7-10.8-3.2c-0.4-0.2-0.8,0.1-1.2-0.2l-1.6-0.1c-1.4-0.1-2.9-0.1-4.3,0l-1.8,0.1 c-0.4,0.2-0.9,0-1.3,0.2c-6,0.9-11.7,2.5-16.5,6.5c-2.2,1.8-4,4.1-5.2,6.7c-1.2,2.3-1.8,4.9-1.8,7.5c-0.1,1-0.1,1.9,0,2.9 c0.2,1,0.2,2,0.3,3c1,5.4,4.1,10.1,8.6,13.2c3.4,2.4,7.4,3.9,11.6,4.2c0.4-0.1,0.8,0,1.2,0.2l2.2,0.1h1.4 c10.6-0.7,18.2-6.1,23.7-15.1c0.2,1.8,0.2,3.4,0.6,5c0.5,2.7,0.7,5.4,1.2,8c0.3,0.6,0.8,0.4,1.3,0.4c5.9,0,11.9,0,17.8,0 c0.3,0,0.7,0.1,1-0.1C750.3,241.6,750.3,229.7,750.3,217.7z M726.8,227.8c-2.5,6.5-6.9,10.8-14,12c-2.2,0.3-4.4,0.1-6.4-0.8 c-2.6-0.9-4.5-3.3-4.8-6.1c-0.4-3,0.9-5.9,3.5-7.5c2.7-1.8,5.8-2.2,8.8-2.3c4.2,0,8.4,1.1,12.2,3 C726.9,226.6,727.2,226.9,726.8,227.8z"></path> <path class="st6" d="M558.7,138.3v-35.4c0-0.4,0-0.7,0-1.1c-0.2-2.6-0.7-5.2-1.3-7.8c-2.4-9.3-7.5-16.3-16.3-20.6 c-4.3-2-8.8-3.2-13.5-3.6c-0.6-0.2-1.3,0.1-1.9-0.2h-5.2c-0.7,0.3-1.5,0-2.2,0.2l-1.4,0.1c-0.4,0.2-0.8,0-1.2,0.2 c-2.8,0.4-5.5,0.8-8.3,1.3c-4.4,0.8-8.6,2-12.7,3.8c-0.6,0.2-0.9,0.7-0.9,1.3c0,1.8,0,3.5,0,5.3v10c2.8-1.2,5.6-2.2,8.5-3 c3.6-1,7.2-1.6,10.9-1.8c0.1-0.1,0.3-0.1,0.4-0.1c0.6-0.1,1.2-0.1,1.7-0.1h2.4c0.7-0.1,1.3,0,2,0.2l0,0c1.6,0.2,3.3,0.5,4.9,0.9 c4.1,0.9,7.5,3.6,9.4,7.3c1,2,1.5,4.3,1.5,6.5c-4.4-2.7-9.3-4.4-14.5-4.9c-0.3,0-0.6,0-0.9-0.1c-0.1,0-0.3,0-0.4-0.1h-6.3 c-0.3,0.1-0.6,0.1-0.8,0.1h-0.4c-3.8,0.4-7.5,1.3-11,2.8c-3.8,1.6-7.2,4.1-9.6,7.4c-2.2,2.9-3.4,6.4-3.6,10.1 c-0.1,1.4-0.1,2.7,0,4.1c0,0.6,0,1.2,0.1,1.8c0.8,3.6,2.3,7.1,4.6,10c2.1,2.5,4.7,4.5,7.7,5.8c3.1,1.4,6.5,2.2,9.9,2.3h4.1 c10-1.2,17.3-6.4,22.5-15.1c0.2,2.3,0.6,4.3,0.8,6.3s0.8,4.1,0.8,6.2c0,0.7,0.4,1.1,1.4,1.1c6.2-0.1,12.5,0,18.7,0 C558.8,139.1,558.7,138.7,558.7,138.3z M535.3,113.2c-2.4,6.5-6.7,10.9-13.7,12.2c-2.3,0.5-4.7,0.2-6.9-0.8 c-2.5-0.9-4.3-3.2-4.6-5.9c-0.5-2.9,0.8-5.9,3.3-7.5c2.4-1.7,5.2-2.2,9.1-2.4c4.3,0,8.5,1,12.3,3.1 C535.3,112.3,535.6,112.5,535.3,113.2z"></path> <path class="st6" d="M553.6,216.5c0-0.5,0-1,0-1.4c-0.2-0.4,0-0.8-0.2-1.2c-0.3-1.8-0.6-3.7-1-5.4c-1.9-7.7-5.9-14-12.5-18.5 c-5-3.4-10.7-4.9-16.7-5.6c-0.5-0.2-1,0.1-1.5-0.2h-7.4c-0.6,0.3-1.2,0-1.7,0.2l-1.4,0.1c-0.4,0.2-0.9,0-1.3,0.2 c-3,0.4-6.1,0.9-9.1,1.5c-3.9,0.8-7.7,2-11.4,3.6c-0.4,0.2-0.7,0.3-0.7,0.9c0,5.1,0,10.3,0,15.6c2.7-1.2,5.5-2.1,8.3-2.9 c3.4-1,6.9-1.6,10.4-1.8c0.5-0.3,1.1,0,1.7-0.2c1.6-0.1,3.2-0.1,4.8,0c0.5,0.2,1-0.1,1.5,0.2c2.4,0.2,4.8,0.8,7,1.9 c3.5,1.5,6.1,4.4,7.3,8c0.5,1.5,0.8,3.2,0.8,4.8c-5.1-3.1-10.9-4.8-16.9-5.1c-1.4-0.1-2.7-0.1-4.1,0l-1.9,0.1 c-0.4,0.2-0.9,0-1.2,0.2c-3.6,0.4-7.1,1.3-10.4,2.7c-3.4,1.4-6.5,3.6-8.8,6.4c-2.6,3.1-4.1,6.9-4.4,10.8c-0.1,1.5-0.1,3,0,4.5 c0.3,4.6,2.2,8.9,5.3,12.2c2.6,2.8,5.8,4.8,9.4,6c2.9,1,6,1.5,9.1,1.5c0.4,0.1,0.8,0.1,1.2,0c10.6-0.7,18.3-6,23.9-15l1.8,13.2 c0.3,0.3,0.8,0.1,1.2,0.1c5.8,0,11.7,0,17.5,0c1.4,0,1.4,0,1.4-1.3v-34.7C553.6,217.3,553.6,216.9,553.6,216.5z M530.3,227.5 c-2.5,6.7-6.9,11.2-14.2,12.3c-2.4,0.4-4.9,0-7.1-1.2c-3.7-1.9-5.2-6.5-3.3-10.2c0.5-1,1.2-1.8,2.1-2.5c2.8-2.2,6.2-2.6,9.4-2.8 c4.3,0,8.6,1.1,12.5,3.2C530.2,226.6,530.5,226.8,530.3,227.5L530.3,227.5z"></path> <path class="st5" d="M287.6,191.1c-2.6-4.5-5.3-8.9-7.9-13.4l-32.7-56.5c-0.4-0.5-0.6-1-0.8-1.6c0.5,0,0.9-0.1,1.4-0.1 c26.7,0,53.4,0,80.1,0c0.4,0,0.9,0,1.3,0.1c-3.1,5.4-6.2,10.8-9.3,16.1l-11.2,19.4c-4,6.9-8,13.7-11.9,20.6 c-2.8,4.8-5.6,9.7-8.4,14.5C288.1,190.5,288,190.9,287.6,191.1z"></path> <path class="st6" d="M745.4,333c-0.5-1.1-1-2.1-1.5-3.2c-4.9-10.6-9.8-21.1-14.6-31.6c-0.2-0.6-0.8-1-1.4-0.9c-1.5,0.1-3,0-4.4,0 c-0.6-0.1-1.1,0.3-1.2,0.8c-1.9,4.3-4,8.5-5.9,12.7s-4,8.8-6,13.2c-1.4,3-2.7,6-4.1,9c0,0.4,0.4,0.4,0.6,0.4h6.8 c0.3,0,0.6,0,0.8-0.4c0.7-2.1,1.8-4.1,2.6-6.2c0.1-0.3,0.4-0.4,0.7-0.4c3,0,5.9-0.1,8.9,0.1c2.6-0.3,5.2-0.3,7.8,0 c0.2,0.2,0.3,0.5,0.5,0.8c0.9,2,1.8,4,2.7,6c2.3,0,4.6,0,6.9,0C744.7,333.2,745.1,333.5,745.4,333z M730.9,319.9H720 c1.9-4.4,3.8-8.6,5.7-13l5.5,12.4C731.3,319.6,731.4,319.9,730.9,319.9z"></path> <path class="st1" d="M204.7,145.9c25.1,0,45.4,20.4,45.4,45.5c0,25.1-20.4,45.4-45.5,45.4c-25.1,0-45.4-20.4-45.4-45.5 C159.2,166.3,179.5,145.9,204.7,145.9C204.6,145.9,204.6,145.9,204.7,145.9z"></path> </svg> 