<?xml version="1.0" encoding="UTF-8"?>
<svg xmlns="http://www.w3.org/2000/svg" xmlns:xlink="http://www.w3.org/1999/xlink" width="238.18pt" height="313.74pt" viewBox="0 0 238.18 313.74" version="1.1">
<defs>
<clipPath id="clip1">
  <path d="M 0 0 L 238.179688 0 L 238.179688 313.738281 L 0 313.738281 Z M 0 0 "/>
</clipPath>
</defs>
<g id="surface1">
<path style=" stroke:none;fill-rule:nonzero;fill:rgb(92.89856%,12.89978%,15.699768%);fill-opacity:1;" d="M 171.851563 184.519531 C 171.851563 187.25 169.269531 191.890625 164.121094 198.421875 L 119.011719 260.390625 L 74.21875 197.558594 C 70.558594 192.679688 68.738281 188.539063 68.738281 185.140625 C 68.738281 181.671875 71.261719 179.308594 76.308594 178.058594 L 76.308594 177.640625 L 163.960938 177.640625 L 163.960938 178.058594 C 169.21875 178.96875 171.851563 181.121094 171.851563 184.519531 "/>
<g clip-path="url(#clip1)" clip-rule="nonzero">
<path style=" stroke:none;fill-rule:nonzero;fill:rgb(0%,0%,3.09906%);fill-opacity:1;" d="M 164.121094 198.421875 C 169.269531 191.890625 171.851563 187.25 171.851563 184.519531 C 171.851563 181.121094 169.21875 178.96875 163.960938 178.058594 L 163.960938 177.640625 L 76.308594 177.640625 L 76.308594 178.058594 C 71.261719 179.308594 68.738281 181.671875 68.738281 185.140625 C 68.738281 188.539063 70.558594 192.679688 74.21875 197.558594 L 119.011719 260.390625 Z M 231.441406 170.910156 L 231.441406 6.730469 L 6.730469 6.730469 L 6.730469 170.910156 Z M 238.179688 310.191406 L 238.179688 313.738281 L 174.300781 313.738281 L 174.300781 310.191406 C 178.078125 309.449219 180.75 308.371094 182.320313 306.960938 C 183.890625 305.550781 184.671875 303.558594 184.671875 300.988281 L 184.671875 222.121094 L 122.671875 303.878906 L 108.160156 303.878906 L 49.808594 222.121094 L 49.808594 300.878906 C 49.808594 303.441406 50.570313 305.421875 52.082031 306.78125 C 53.589844 308.140625 56.300781 309.28125 60.191406 310.191406 L 60.191406 313.738281 L 0.128906 313.738281 L 0.128906 310.191406 C 3.910156 309.449219 6.582031 308.371094 8.148438 306.960938 C 9.71875 305.558594 10.5 303.570313 10.5 301 L 10.5 187.25 C 10.5 184.691406 9.738281 182.71875 8.230469 181.351563 C 6.71875 179.988281 4.019531 178.890625 0.128906 178.058594 L 0.128906 177.640625 L 0 177.640625 L 0 0 L 238.179688 0 L 238.179688 178.058594 C 234.289063 178.890625 231.589844 179.988281 230.078125 181.351563 C 228.5625 182.71875 227.8125 184.679688 227.8125 187.238281 L 227.8125 300.890625 C 227.8125 303.449219 228.5625 305.441406 230.078125 306.839844 C 231.589844 308.25 234.289063 309.359375 238.179688 310.191406 "/>
</g>
<path style=" stroke:none;fill-rule:nonzero;fill:rgb(0%,0%,3.09906%);fill-opacity:1;" d="M 225.890625 128.109375 L 225.890625 163.609375 L 107.011719 163.609375 C 118.660156 157.570313 124.5 146.570313 124.5 130.578125 L 124.5 77.511719 L 177.730469 77.511719 L 212.128906 128.109375 L 225.890625 128.109375 "/>
<path style=" stroke:none;fill-rule:nonzero;fill:rgb(0%,0%,3.09906%);fill-opacity:1;" d="M 225.890625 58.601563 L 225.890625 120.570313 L 196.78125 77.289063 C 205.710938 75.828125 213.25 72.328125 219.398438 66.78125 C 222.128906 64.230469 224.28125 61.511719 225.890625 58.601563 "/>
<path style=" stroke:none;fill-rule:nonzero;fill:rgb(0%,0%,3.09906%);fill-opacity:1;" d="M 225.890625 13.949219 L 225.890625 29.71875 C 223.5625 25.558594 220.089844 22.070313 215.46875 19.25 C 211.398438 16.828125 206.699219 15.070313 201.371094 13.949219 L 225.890625 13.949219 "/>
<path style=" stroke:none;fill-rule:nonzero;fill:rgb(100%,100%,100%);fill-opacity:1;" d="M 12.449219 163.609375 L 28.539063 163.609375 C 19.839844 159.261719 14.460938 152.851563 12.449219 144.351563 Z M 225.890625 120.570313 L 225.890625 58.601563 C 224.28125 61.511719 222.128906 64.230469 219.398438 66.78125 C 213.25 72.328125 205.710938 75.828125 196.78125 77.289063 Z M 225.890625 163.609375 L 225.890625 128.109375 L 212.128906 128.109375 L 177.730469 77.511719 L 124.5 77.511719 L 124.5 130.578125 C 124.5 146.570313 118.660156 157.570313 107.011719 163.609375 Z M 231.441406 6.730469 L 231.441406 170.910156 L 6.730469 170.910156 L 6.730469 6.730469 Z M 69.988281 156.921875 C 83.390625 156.921875 92.582031 155.238281 97.539063 151.890625 C 104.078125 147.648438 107.359375 139.28125 107.371094 126.769531 L 107.371094 13.949219 L 12.449219 13.949219 L 12.449219 117.640625 L 28.441406 117.640625 L 28.441406 135.640625 C 28.441406 149.828125 42.289063 156.921875 69.988281 156.921875 Z M 225.890625 29.71875 L 225.890625 13.949219 L 201.371094 13.949219 C 206.699219 15.070313 211.398438 16.828125 215.46875 19.25 C 220.089844 22.070313 223.5625 25.558594 225.890625 29.71875 Z M 211.230469 45.109375 C 211.230469 32.21875 202.839844 25.769531 186.050781 25.769531 L 124.5 25.769531 L 124.5 64.011719 L 184.960938 64.011719 C 202.480469 64.011719 211.230469 57.710938 211.230469 45.109375 "/>
<path style=" stroke:none;fill-rule:nonzero;fill:rgb(0%,0%,3.09906%);fill-opacity:1;" d="M 186.050781 25.769531 C 202.839844 25.769531 211.230469 32.21875 211.230469 45.109375 C 211.230469 57.710938 202.480469 64.011719 184.960938 64.011719 L 124.5 64.011719 L 124.5 25.769531 L 186.050781 25.769531 "/>
<path style=" stroke:none;fill-rule:nonzero;fill:rgb(0%,0%,3.09906%);fill-opacity:1;" d="M 107.371094 13.949219 L 107.371094 126.769531 C 107.359375 139.28125 104.078125 147.648438 97.539063 151.890625 C 92.582031 155.238281 83.390625 156.921875 69.988281 156.921875 C 42.289063 156.921875 28.441406 149.828125 28.441406 135.640625 L 28.441406 117.640625 L 12.449219 117.640625 L 12.449219 13.949219 L 107.371094 13.949219 "/>
<path style=" stroke:none;fill-rule:nonzero;fill:rgb(0%,0%,3.09906%);fill-opacity:1;" d="M 28.539063 163.609375 L 12.449219 163.609375 L 12.449219 144.351563 C 14.460938 152.851563 19.839844 159.261719 28.539063 163.609375 "/>
</g>
</svg>
